<svg xmlns="http://www.w3.org/2000/svg" width="1600" height="900" viewBox="0 0 1600 900">
<title>PREMIUM RESTRAINT evidence template</title>
<desc>One editable 16:9 evidence reference page from the PREMIUM RESTRAINT multi-page template family.</desc>
<rect x="0" y="0" width="1600" height="900" rx="0" fill="#151813" stroke="none" stroke-width="0"/>
<g transform="translate(40 50) scale(2)">
<rect x="0" y="0" width="760" height="400" rx="2" fill="#20231D" stroke="#55594D" stroke-width="1"/>
<rect x="0" y="0" width="760" height="6" rx="2" fill="#C7A35A" stroke="none" stroke-width="0"/>
<text data-role="label" x="34" y="34" font-family="Arial" font-size="10" font-weight="700" fill="#C7A35A" text-anchor="start"><tspan x="34" dy="0">EVIDENCE</tspan></text>
<text data-role="page-number" x="714" y="34" font-family="Arial" font-size="10" font-weight="700" fill="#B8B2A5" text-anchor="end"><tspan x="714" dy="0">06</tspan></text>
<text data-role="slide-title" x="34" y="82" font-family="Georgia" font-size="26" font-weight="700" fill="#F1EBDD" text-anchor="start"><tspan x="34" dy="0">The signal improves when the handoff becomes visible</tspan></text>
<text data-role="caption" x="34" y="110" font-family="Arial" font-size="9" font-weight="400" fill="#B8B2A5" text-anchor="start"><tspan x="34" dy="0">Illustrative values demonstrate hierarchy only; replace every number and label.</tspan></text>
<text data-role="metric" x="34" y="158" font-family="Georgia" font-size="24" font-weight="700" fill="#C7A35A" text-anchor="start"><tspan x="34" dy="0">3</tspan></text>
<text data-role="label" x="132" y="156" font-family="Arial" font-size="10" font-weight="700" fill="#F1EBDD" text-anchor="start"><tspan x="132" dy="0">portfolio bets</tspan></text>
<text data-role="annotation" x="132" y="174" font-family="Arial" font-size="9" font-weight="400" fill="#B8B2A5" text-anchor="start"><tspan x="132" dy="0">Observed movement · sample period</tspan></text>
<line x1="34" y1="186" x2="246" y2="186" stroke="#55594D" stroke-width="1"/>
<text data-role="metric" x="34" y="224" font-family="Georgia" font-size="24" font-weight="700" fill="#F1EBDD" text-anchor="start"><tspan x="34" dy="0">68%</tspan></text>
<text data-role="label" x="132" y="222" font-family="Arial" font-size="10" font-weight="700" fill="#F1EBDD" text-anchor="start"><tspan x="132" dy="0">capital focused</tspan></text>
<text data-role="annotation" x="132" y="240" font-family="Arial" font-size="9" font-weight="400" fill="#B8B2A5" text-anchor="start"><tspan x="132" dy="0">Observed movement · sample period</tspan></text>
<line x1="34" y1="252" x2="246" y2="252" stroke="#55594D" stroke-width="1"/>
<text data-role="metric" x="34" y="290" font-family="Georgia" font-size="24" font-weight="700" fill="#F1EBDD" text-anchor="start"><tspan x="34" dy="0">24m</tspan></text>
<text data-role="label" x="132" y="288" font-family="Arial" font-size="10" font-weight="700" fill="#F1EBDD" text-anchor="start"><tspan x="132" dy="0">value horizon</tspan></text>
<text data-role="annotation" x="132" y="306" font-family="Arial" font-size="9" font-weight="400" fill="#B8B2A5" text-anchor="start"><tspan x="132" dy="0">Observed movement · sample period</tspan></text>
<line x1="34" y1="318" x2="246" y2="318" stroke="#55594D" stroke-width="1"/>
<rect x="292" y="148" width="428" height="158" rx="2" fill="#292D25" stroke="#55594D" stroke-width="1"/>
<text data-role="label" x="310" y="176" font-family="Arial" font-size="10" font-weight="700" fill="#F1EBDD" text-anchor="start"><tspan x="310" dy="0">TREND INDEX · BASE 100</tspan></text>
<line x1="310" y1="202" x2="702" y2="202" stroke="#55594D" stroke-width="1"/>
<line x1="310" y1="228" x2="702" y2="228" stroke="#55594D" stroke-width="1"/>
<line x1="310" y1="254" x2="702" y2="254" stroke="#55594D" stroke-width="1"/>
<line x1="310" y1="280" x2="702" y2="280" stroke="#55594D" stroke-width="1"/>
<polyline points="316,274 374,260 432,266 490,236 548,226 606,200 684,186" fill="none" stroke="#C7A35A" stroke-width="4"/>
<circle cx="316" cy="274" r="5" fill="#C7A35A"/>
<circle cx="374" cy="260" r="5" fill="#C7A35A"/>
<circle cx="432" cy="266" r="5" fill="#C7A35A"/>
<circle cx="490" cy="236" r="5" fill="#C7A35A"/>
<circle cx="548" cy="226" r="5" fill="#C7A35A"/>
<circle cx="606" cy="200" r="5" fill="#C7A35A"/>
<circle cx="684" cy="186" r="5" fill="#C7A35A"/>
<rect x="292" y="326" width="428" height="42" rx="2" fill="#292D25" stroke="#55594D" stroke-width="1"/>
<text data-role="label" x="310" y="352" font-family="Arial" font-size="10" font-weight="700" fill="#8E9B78" text-anchor="start"><tspan x="310" dy="0">INTERPRETATION</tspan></text>
<text data-role="annotation" x="430" y="352" font-family="Arial" font-size="9" font-weight="400" fill="#F1EBDD" text-anchor="start"><tspan x="430" dy="0">The largest gain appears after ownership and review criteria become explicit.</tspan></text>
<text data-role="source" x="724" y="392" font-family="Arial" font-size="9" font-weight="700" fill="#B8B2A5" text-anchor="end"><tspan x="724" dy="0">ILLUSTRATIVE TEMPLATE</tspan></text>
</g>
</svg>
