<svg xmlns="http://www.w3.org/2000/svg" width="1600" height="900" viewBox="0 0 1600 900">
<title>EDITORIAL INTELLIGENCE decision template</title>
<desc>One editable 16:9 decision reference page from the EDITORIAL INTELLIGENCE multi-page template family.</desc>
<rect x="0" y="0" width="1600" height="900" rx="0" fill="#D8D4CC" stroke="none" stroke-width="0"/>
<g transform="translate(40 50) scale(2)">
<rect x="0" y="0" width="760" height="400" rx="0" fill="#F7F3EB" stroke="#BFB7AA" stroke-width="1"/>
<rect x="18" y="52" width="4" height="310" rx="0" fill="#C94A3A" stroke="none" stroke-width="0"/>
<line x1="42" y1="122" x2="730" y2="122" stroke="#BFB7AA" stroke-width="1"/>
<line x1="516" y1="38" x2="516" y2="372" stroke="#BFB7AA" stroke-width="0.8"/>
<text data-role="metric" x="720" y="320" font-family="Georgia" font-size="94" font-weight="700" fill="#EEE8DD" text-anchor="end"><tspan x="720" dy="0">09</tspan></text>
<text data-role="label" x="34" y="34" font-family="Arial" font-size="10" font-weight="700" fill="#1746A2" text-anchor="start"><tspan x="34" dy="0">DECISION / PRIORITY FIELD</tspan></text>
<text data-role="page-number" x="718" y="34" font-family="Arial" font-size="10" font-weight="700" fill="#5E5A54" text-anchor="end"><tspan x="718" dy="0">09</tspan></text>
<text data-role="slide-title" x="34" y="82" font-family="Georgia" font-size="26" font-weight="700" fill="#161616" text-anchor="start"><tspan x="34" dy="0">Choose the path with the strongest evidence and</tspan><tspan x="34" dy="27.3">clearest consequence</tspan></text>
<text data-role="caption" x="34" y="136" font-family="Arial" font-size="9" font-weight="400" fill="#5E5A54" text-anchor="start"><tspan x="34" dy="0">Illustrative priorities show hierarchy only; replace the recommendation, evidence, owner, milestone, and boundary.</tspan></text>
<polygon points="34,152 398,146 408,196 44,202" fill="#EEE8DD" stroke="#BFB7AA" stroke-width="1"/>
<rect x="34" y="152" width="8" height="50" rx="0" fill="#1746A2" stroke="none" stroke-width="0"/>
<text data-role="subheading" x="58" y="174" font-family="Arial" font-size="14" font-weight="700" fill="#161616" text-anchor="start"><tspan x="58" dy="0">Focus</tspan></text>
<text data-role="annotation" x="58" y="192" font-family="Arial" font-size="9" font-weight="400" fill="#5E5A54" text-anchor="start"><tspan x="58" dy="0">Decision · This week</tspan></text>
<text data-role="metric" x="382" y="180" font-family="Georgia" font-size="18" font-weight="700" fill="#1746A2" text-anchor="end"><tspan x="382" dy="0">01</tspan></text>
<polygon points="34,216 398,210 408,260 44,266" fill="#EEE8DD" stroke="#BFB7AA" stroke-width="1"/>
<rect x="34" y="216" width="8" height="50" rx="0" fill="#C94A3A" stroke="none" stroke-width="0"/>
<text data-role="subheading" x="58" y="238" font-family="Arial" font-size="14" font-weight="700" fill="#161616" text-anchor="start"><tspan x="58" dy="0">Differentiate</tspan></text>
<text data-role="annotation" x="58" y="256" font-family="Arial" font-size="9" font-weight="400" fill="#5E5A54" text-anchor="start"><tspan x="58" dy="0">Strategy · Q3</tspan></text>
<text data-role="metric" x="382" y="244" font-family="Georgia" font-size="18" font-weight="700" fill="#1746A2" text-anchor="end"><tspan x="382" dy="0">02</tspan></text>
<polygon points="34,280 398,274 408,324 44,330" fill="#EEE8DD" stroke="#BFB7AA" stroke-width="1"/>
<rect x="34" y="280" width="8" height="50" rx="0" fill="#C94A3A" stroke="none" stroke-width="0"/>
<text data-role="subheading" x="58" y="302" font-family="Arial" font-size="14" font-weight="700" fill="#161616" text-anchor="start"><tspan x="58" dy="0">Compound</tspan></text>
<text data-role="annotation" x="58" y="320" font-family="Arial" font-size="9" font-weight="400" fill="#5E5A54" text-anchor="start"><tspan x="58" dy="0">Portfolio · Q4</tspan></text>
<text data-role="metric" x="382" y="308" font-family="Georgia" font-size="18" font-weight="700" fill="#1746A2" text-anchor="end"><tspan x="382" dy="0">03</tspan></text>
<text data-role="label" x="446" y="134" font-family="Arial" font-size="10" font-weight="700" fill="#161616" text-anchor="start"><tspan x="446" dy="0">VALUE / CONFIDENCE</tspan></text>
<rect x="446" y="146" width="270" height="190" rx="0" fill="#EEE8DD" stroke="#BFB7AA" stroke-width="1"/>
<line x1="581" y1="158" x2="581" y2="324" stroke="#BFB7AA" stroke-width="1"/>
<line x1="458" y1="241" x2="704" y2="241" stroke="#BFB7AA" stroke-width="1"/>
<text data-role="annotation" x="464" y="174" font-family="Arial" font-size="9" font-weight="700" fill="#5E5A54" text-anchor="start"><tspan x="464" dy="0">EXPLORE</tspan></text>
<text data-role="annotation" x="600" y="174" font-family="Arial" font-size="9" font-weight="700" fill="#326B52" text-anchor="start"><tspan x="600" dy="0">SCALE</tspan></text>
<text data-role="annotation" x="464" y="266" font-family="Arial" font-size="9" font-weight="700" fill="#5E5A54" text-anchor="start"><tspan x="464" dy="0">DEFER</tspan></text>
<text data-role="annotation" x="600" y="266" font-family="Arial" font-size="9" font-weight="700" fill="#B37A2D" text-anchor="start"><tspan x="600" dy="0">PROVE</tspan></text>
<circle cx="650" cy="208" r="20" fill="#326B52"/>
<circle cx="624" cy="291" r="14" fill="#B37A2D"/>
<circle cx="522" cy="216" r="10" fill="#1746A2"/>
<rect x="34" y="364" width="682" height="24" rx="12" fill="#1746A2" stroke="none" stroke-width="0"/>
<text data-role="source" x="375" y="381" font-family="Arial" font-size="9" font-weight="700" fill="#FFFFFF" text-anchor="middle"><tspan x="375" dy="0">ONE DECISION · THREE OWNERS · ONE VISIBLE NEXT MILESTONE</tspan></text>
<text data-role="source" x="724" y="392" font-family="Arial" font-size="9" font-weight="700" fill="#5E5A54" text-anchor="end"><tspan x="724" dy="0">ILLUSTRATIVE TEMPLATE</tspan></text>
</g>
</svg>
