<svg xmlns="http://www.w3.org/2000/svg" width="1600" height="900" viewBox="0 0 1600 900">
<title>EDITORIAL INTELLIGENCE comparison template</title>
<desc>One editable 16:9 comparison reference page from the EDITORIAL INTELLIGENCE multi-page template family.</desc>
<rect x="0" y="0" width="1600" height="900" rx="0" fill="#D8D4CC" stroke="none" stroke-width="0"/>
<g transform="translate(40 50) scale(2)">
<rect x="0" y="0" width="760" height="400" rx="0" fill="#F7F3EB" stroke="#BFB7AA" stroke-width="1"/>
<rect x="18" y="52" width="4" height="310" rx="0" fill="#C94A3A" stroke="none" stroke-width="0"/>
<line x1="42" y1="122" x2="730" y2="122" stroke="#BFB7AA" stroke-width="1"/>
<line x1="516" y1="38" x2="516" y2="372" stroke="#BFB7AA" stroke-width="0.8"/>
<text data-role="metric" x="720" y="320" font-family="Georgia" font-size="94" font-weight="700" fill="#EEE8DD" text-anchor="end"><tspan x="720" dy="0">07</tspan></text>
<text data-role="label" x="34" y="34" font-family="Arial" font-size="10" font-weight="700" fill="#1746A2" text-anchor="start"><tspan x="34" dy="0">COMPARISON / SHARED CRITERIA</tspan></text>
<text data-role="page-number" x="718" y="34" font-family="Arial" font-size="10" font-weight="700" fill="#5E5A54" text-anchor="end"><tspan x="718" dy="0">07</tspan></text>
<text data-role="slide-title" x="34" y="82" font-family="Georgia" font-size="26" font-weight="700" fill="#161616" text-anchor="start"><tspan x="34" dy="0">Compare the arguments on the same evidentiary</tspan><tspan x="34" dy="27.3">baseline</tspan></text>
<text data-role="caption" x="34" y="136" font-family="Arial" font-size="9" font-weight="400" fill="#5E5A54" text-anchor="start"><tspan x="34" dy="0">Use direct labels, shared criteria, and sourced observations; illustrative bars are not real evidence.</tspan></text>
<polygon points="34,144 370,132 346,344 34,358" fill="#EEE8DD" stroke="#BFB7AA" stroke-width="1"/>
<polygon points="370,132 716,144 716,358 346,344" fill="#F7F3EB" stroke="#BFB7AA" stroke-width="1"/>
<text data-role="subheading" x="58" y="176" font-family="Arial" font-size="14" font-weight="700" fill="#C94A3A" text-anchor="start"><tspan x="58" dy="0">OPTION A / CURRENT</tspan></text>
<text data-role="subheading" x="402" y="176" font-family="Arial" font-size="14" font-weight="700" fill="#1746A2" text-anchor="start"><tspan x="402" dy="0">OPTION B / RECOMMENDED</tspan></text>
<text data-role="body" x="58" y="202" font-family="Arial" font-size="9" font-weight="400" fill="#5E5A54" text-anchor="start"><tspan x="58" dy="0">Lower coordination cost</tspan><tspan x="58" dy="12.15">but evidence remains fragmented.</tspan></text>
<text data-role="body" x="402" y="202" font-family="Arial" font-size="9" font-weight="400" fill="#5E5A54" text-anchor="start"><tspan x="402" dy="0">Higher setup discipline</tspan><tspan x="402" dy="12.15">but decisions become reviewable.</tspan></text>
<text data-role="label" x="58" y="258" font-family="Arial" font-size="10" font-weight="700" fill="#161616" text-anchor="start"><tspan x="58" dy="0">Audience fit</tspan></text>
<rect x="156" y="248" width="152" height="10" rx="0" fill="#BFB7AA" stroke="none" stroke-width="0"/>
<rect x="156" y="248" width="109.44" height="10" rx="0" fill="#C94A3A" stroke="none" stroke-width="0"/>
<text data-role="label" x="402" y="258" font-family="Arial" font-size="10" font-weight="700" fill="#161616" text-anchor="start"><tspan x="402" dy="0">Audience fit</tspan></text>
<rect x="500" y="248" width="152" height="10" rx="0" fill="#BFB7AA" stroke="none" stroke-width="0"/>
<rect x="500" y="248" width="133.76" height="10" rx="0" fill="#1746A2" stroke="none" stroke-width="0"/>
<text data-role="label" x="58" y="292" font-family="Arial" font-size="10" font-weight="700" fill="#161616" text-anchor="start"><tspan x="58" dy="0">Evidence strength</tspan></text>
<rect x="156" y="282" width="152" height="10" rx="0" fill="#BFB7AA" stroke="none" stroke-width="0"/>
<rect x="156" y="282" width="85.12" height="10" rx="0" fill="#C94A3A" stroke="none" stroke-width="0"/>
<text data-role="label" x="402" y="292" font-family="Arial" font-size="10" font-weight="700" fill="#161616" text-anchor="start"><tspan x="402" dy="0">Evidence strength</tspan></text>
<rect x="500" y="282" width="152" height="10" rx="0" fill="#BFB7AA" stroke="none" stroke-width="0"/>
<rect x="500" y="282" width="130.72" height="10" rx="0" fill="#1746A2" stroke="none" stroke-width="0"/>
<text data-role="label" x="58" y="326" font-family="Arial" font-size="10" font-weight="700" fill="#161616" text-anchor="start"><tspan x="58" dy="0">Execution load</tspan></text>
<rect x="156" y="316" width="152" height="10" rx="0" fill="#BFB7AA" stroke="none" stroke-width="0"/>
<rect x="156" y="316" width="112.48" height="10" rx="0" fill="#C94A3A" stroke="none" stroke-width="0"/>
<text data-role="label" x="402" y="326" font-family="Arial" font-size="10" font-weight="700" fill="#161616" text-anchor="start"><tspan x="402" dy="0">Execution load</tspan></text>
<rect x="500" y="316" width="152" height="10" rx="0" fill="#BFB7AA" stroke="none" stroke-width="0"/>
<rect x="500" y="316" width="94.24" height="10" rx="0" fill="#1746A2" stroke="none" stroke-width="0"/>
<circle cx="360" cy="248" r="30" fill="#1746A2"/>
<text data-role="metric" x="360" y="255" font-family="Georgia" font-size="16" font-weight="700" fill="#FFFFFF" text-anchor="middle"><tspan x="360" dy="0">VS</tspan></text>
<rect x="228" y="366" width="316" height="22" rx="11" fill="#1746A2" stroke="none" stroke-width="0"/>
<text data-role="source" x="386" y="382" font-family="Arial" font-size="9" font-weight="700" fill="#FFFFFF" text-anchor="middle"><tspan x="386" dy="0">RECOMMEND B AFTER SOURCE AND CONSEQUENCE REVIEW</tspan></text>
<text data-role="source" x="724" y="392" font-family="Arial" font-size="9" font-weight="700" fill="#5E5A54" text-anchor="end"><tspan x="724" dy="0">ILLUSTRATIVE TEMPLATE</tspan></text>
</g>
</svg>
