<svg xmlns="http://www.w3.org/2000/svg" width="1600" height="900" viewBox="0 0 1600 900">
<title>DARK ENGINEERED SYSTEMS close template</title>
<desc>One editable 16:9 close reference page from the DARK ENGINEERED SYSTEMS multi-page template family.</desc>
<rect x="0" y="0" width="1600" height="900" rx="0" fill="#07111F" stroke="none" stroke-width="0"/>
<g transform="translate(40 50) scale(2)">
<rect x="0" y="0" width="760" height="400" rx="4" fill="#0B1728" stroke="#304259" stroke-width="1"/>
<rect x="0" y="0" width="760" height="6" rx="4" fill="#20C4E8" stroke="none" stroke-width="0"/>
<text data-role="label" x="34" y="34" font-family="Arial" font-size="10" font-weight="700" fill="#20C4E8" text-anchor="start"><tspan x="34" dy="0">RESOLUTION</tspan></text>
<text data-role="page-number" x="714" y="34" font-family="Arial" font-size="10" font-weight="700" fill="#8EA1B6" text-anchor="end"><tspan x="714" dy="0">10</tspan></text>
<line x1="70" y1="58" x2="70" y2="374" stroke="#304259" stroke-width="0.5"/>
<line x1="150" y1="58" x2="150" y2="374" stroke="#304259" stroke-width="0.5"/>
<line x1="230" y1="58" x2="230" y2="374" stroke="#304259" stroke-width="0.5"/>
<line x1="310" y1="58" x2="310" y2="374" stroke="#304259" stroke-width="0.5"/>
<line x1="390" y1="58" x2="390" y2="374" stroke="#304259" stroke-width="0.5"/>
<line x1="470" y1="58" x2="470" y2="374" stroke="#304259" stroke-width="0.5"/>
<line x1="550" y1="58" x2="550" y2="374" stroke="#304259" stroke-width="0.5"/>
<line x1="630" y1="58" x2="630" y2="374" stroke="#304259" stroke-width="0.5"/>
<line x1="710" y1="58" x2="710" y2="374" stroke="#304259" stroke-width="0.5"/>
<text data-role="deck-title" x="54" y="142" font-family="Arial" font-size="46" font-weight="700" fill="#E8F1FA" text-anchor="start"><tspan x="54" dy="0">End with one clear move</tspan></text>
<text data-role="subheading" x="58" y="194" font-family="Arial" font-size="14" font-weight="700" fill="#E8F1FA" text-anchor="start"><tspan x="58" dy="0">Resolve the argument into an owner, a milestone, and a visible next decision.</tspan></text>
<line x1="58" y1="222" x2="704" y2="222" stroke="#304259" stroke-width="2"/>
<text data-role="metric" x="58" y="274" font-family="Arial" font-size="24" font-weight="700" fill="#20C4E8" text-anchor="start"><tspan x="58" dy="0">01</tspan></text>
<text data-role="subheading" x="58" y="308" font-family="Arial" font-size="14" font-weight="700" fill="#E8F1FA" text-anchor="start"><tspan x="58" dy="0">DECISION</tspan></text>
<text data-role="body" x="58" y="334" font-family="Arial" font-size="9" font-weight="400" fill="#8EA1B6" text-anchor="start"><tspan x="58" dy="0">Name what must be approved</tspan></text>
<text data-role="metric" x="274" y="274" font-family="Arial" font-size="24" font-weight="700" fill="#5077FF" text-anchor="start"><tspan x="274" dy="0">02</tspan></text>
<text data-role="subheading" x="274" y="308" font-family="Arial" font-size="14" font-weight="700" fill="#E8F1FA" text-anchor="start"><tspan x="274" dy="0">OWNER</tspan></text>
<text data-role="body" x="274" y="334" font-family="Arial" font-size="9" font-weight="400" fill="#8EA1B6" text-anchor="start"><tspan x="274" dy="0">Make accountability visible</tspan></text>
<text data-role="metric" x="490" y="274" font-family="Arial" font-size="24" font-weight="700" fill="#5077FF" text-anchor="start"><tspan x="490" dy="0">03</tspan></text>
<text data-role="subheading" x="490" y="308" font-family="Arial" font-size="14" font-weight="700" fill="#E8F1FA" text-anchor="start"><tspan x="490" dy="0">MILESTONE</tspan></text>
<text data-role="body" x="490" y="334" font-family="Arial" font-size="9" font-weight="400" fill="#8EA1B6" text-anchor="start"><tspan x="490" dy="0">Define the next proof point</tspan></text>
<text data-role="source" x="724" y="392" font-family="Arial" font-size="9" font-weight="700" fill="#8EA1B6" text-anchor="end"><tspan x="724" dy="0">ILLUSTRATIVE TEMPLATE</tspan></text>
</g>
</svg>
