<svg xmlns="http://www.w3.org/2000/svg" width="1600" height="900" viewBox="0 0 1600 900">
  <rect x="0" y="0" width="1600" height="900" fill="#F4F1EA"/>
  <g font-family="Microsoft YaHei, PingFang SC, Noto Sans CJK SC, sans-serif">
    <text x="96" y="118" font-size="54" font-weight="700" fill="#111827">从资料到 PPTX，每一步都有清晰质量门</text>
    <text x="96" y="166" font-size="22" fill="#6B7280">工作流让创造性决策可见，也让工程结果可重复。</text>

    <line x1="150" y1="352" x2="1450" y2="352" stroke="#D4CFC4" stroke-width="6"/>
    <line x1="150" y1="352" x2="800" y2="352" stroke="#155EEF" stroke-width="6"/>

    <circle cx="150" cy="352" r="30" fill="#155EEF"/>
    <circle cx="367" cy="352" r="30" fill="#155EEF"/>
    <circle cx="584" cy="352" r="30" fill="#155EEF"/>
    <circle cx="800" cy="352" r="30" fill="#155EEF"/>
    <circle cx="1017" cy="352" r="30" fill="#FFFFFF" stroke="#111827" stroke-width="4"/>
    <circle cx="1234" cy="352" r="30" fill="#FFFFFF" stroke="#111827" stroke-width="4"/>
    <circle cx="1450" cy="352" r="30" fill="#B8F34A" stroke="#111827" stroke-width="4"/>

    <text x="150" y="362" text-anchor="middle" font-size="20" font-weight="700" fill="#FFFFFF">01</text>
    <text x="367" y="362" text-anchor="middle" font-size="20" font-weight="700" fill="#FFFFFF">02</text>
    <text x="584" y="362" text-anchor="middle" font-size="20" font-weight="700" fill="#FFFFFF">03</text>
    <text x="800" y="362" text-anchor="middle" font-size="20" font-weight="700" fill="#FFFFFF">04</text>
    <text x="1017" y="362" text-anchor="middle" font-size="20" font-weight="700" fill="#111827">05</text>
    <text x="1234" y="362" text-anchor="middle" font-size="20" font-weight="700" fill="#111827">06</text>
    <text x="1450" y="362" text-anchor="middle" font-size="20" font-weight="700" fill="#111827">07</text>

    <text x="150" y="444" text-anchor="middle" font-size="24" font-weight="700" fill="#111827">读资料</text>
    <text x="367" y="444" text-anchor="middle" font-size="24" font-weight="700" fill="#111827">定叙事</text>
    <text x="584" y="444" text-anchor="middle" font-size="24" font-weight="700" fill="#111827">定风格</text>
    <text x="800" y="444" text-anchor="middle" font-size="24" font-weight="700" fill="#111827">写 SVG</text>
    <text x="1017" y="444" text-anchor="middle" font-size="24" font-weight="700" fill="#111827">校验渲染</text>
    <text x="1234" y="444" text-anchor="middle" font-size="24" font-weight="700" fill="#111827">视觉复审</text>
    <text x="1450" y="444" text-anchor="middle" font-size="24" font-weight="700" fill="#111827">编译交付</text>

    <text x="150" y="486" text-anchor="middle" font-size="19" fill="#6B7280">理解事实</text>
    <text x="367" y="486" text-anchor="middle" font-size="19" fill="#6B7280">建立问题链</text>
    <text x="584" y="486" text-anchor="middle" font-size="19" fill="#6B7280">视觉命题</text>
    <text x="800" y="486" text-anchor="middle" font-size="19" fill="#6B7280">一页一源</text>
    <text x="1017" y="486" text-anchor="middle" font-size="19" fill="#6B7280">结构与预览</text>
    <text x="1234" y="486" text-anchor="middle" font-size="19" fill="#6B7280">逐页修订</text>
    <text x="1450" y="486" text-anchor="middle" font-size="19" fill="#6B7280">PPTX + 报告</text>

    <rect x="96" y="610" width="704" height="120" fill="#111827"/>
    <text x="132" y="660" font-size="22" font-weight="700" fill="#B8F34A">CREATIVE GATES</text>
    <text x="132" y="704" font-size="28" font-weight="600" fill="#FFFFFF">受众、论点、艺术方向、页面判断</text>
    <rect x="800" y="610" width="704" height="120" fill="#FFFFFF" stroke="#D4CFC4" stroke-width="2"/>
    <text x="836" y="660" font-size="22" font-weight="700" fill="#155EEF">QUALITY GATES</text>
    <text x="836" y="704" font-size="28" font-weight="600" fill="#111827">SVG 安全、渲染、编译、PPTX 完整性</text>
    <text x="1504" y="832" text-anchor="end" font-size="20" fill="#6B7280">04</text>
  </g>
</svg>
