<svg xmlns="http://www.w3.org/2000/svg" width="1600" height="900" viewBox="0 0 1600 900">
  <rect x="0" y="0" width="1600" height="900" fill="#F4F1EA"/>
  <g font-family="Microsoft YaHei, PingFang SC, Noto Sans CJK SC, sans-serif">
    <text x="96" y="118" font-size="54" font-weight="700" fill="#111827">V1.0 已经通过可重复的工程验证</text>
    <text x="96" y="166" font-size="22" fill="#6B7280">数字不是装饰，而是证明这条向量工作流已经完整跑通。</text>

    <text x="96" y="402" font-size="196" font-weight="700" fill="#155EEF">40</text>
    <text x="112" y="540" font-size="32" font-weight="700" fill="#111827">项自动化测试</text>
    <text x="112" y="584" font-size="22" fill="#6B7280">覆盖解析、校验、渲染、编译与端到端流程</text>

    <line x1="640" y1="238" x2="640" y2="738" stroke="#D4CFC4" stroke-width="2"/>
    <text x="710" y="346" font-size="104" font-weight="700" fill="#111827">2</text>
    <text x="820" y="316" font-size="28" font-weight="700" fill="#111827">套安装路径</text>
    <text x="820" y="356" font-size="19" fill="#6B7280">uv + pip requirements.txt</text>
    <line x1="710" y1="406" x2="1020" y2="406" stroke="#D4CFC4" stroke-width="2"/>

    <text x="710" y="566" font-size="104" font-weight="700" fill="#111827">5</text>
    <text x="820" y="536" font-size="28" font-weight="700" fill="#111827">页可编辑示例</text>
    <text x="820" y="574" font-size="20" fill="#6B7280">完整经历校验、渲染与编译</text>
    <text x="820" y="608" font-size="20" fill="#6B7280">并通过重开与包结构验证</text>

    <rect x="1120" y="238" width="384" height="500" fill="#111827"/>
    <text x="1164" y="296" font-size="22" font-weight="700" fill="#B8F34A">EXAMPLE REPORT</text>
    <text x="1164" y="438" font-size="118" font-weight="700" fill="#FFFFFF">96</text>
    <text x="1164" y="548" font-size="27" font-weight="700" fill="#FFFFFF">个原生 PowerPoint 对象</text>
    <line x1="1164" y1="584" x2="1460" y2="584" stroke="#4B5563" stroke-width="2"/>
    <text x="1164" y="636" font-size="31" font-weight="700" fill="#B8F34A">0 fallback</text>
    <text x="1164" y="682" font-size="31" font-weight="700" fill="#B8F34A">0 failed</text>
    <text x="1164" y="724" font-size="18" fill="#9CA3AF">V1.0 basic-deck compilation report</text>

    <text x="96" y="822" font-size="20" fill="#6B7280">RELEASED · 2026.08.09</text>
    <text x="1504" y="822" text-anchor="end" font-size="20" fill="#6B7280">09</text>
  </g>
</svg>
