<svg xmlns="http://www.w3.org/2000/svg" width="1600" height="900" viewBox="0 0 1600 900">
<title>DYNAMIC HERO EDITORIAL evidence template</title>
<desc>One editable 16:9 evidence reference page from the DYNAMIC HERO EDITORIAL multi-page template family.</desc>
<rect x="0" y="0" width="1600" height="900" rx="0" fill="#070A11" stroke="none" stroke-width="0"/>
<g transform="translate(40 50) scale(2)">
<rect x="0" y="0" width="760" height="400" rx="0" fill="#0D111B" stroke="#303746" stroke-width="1"/>
<polygon points="550,0 760,0 760,146" fill="#2A0A18"/>
<polygon points="646,0 760,0 760,76" fill="#FF1748"/>
<line x1="200" y1="8" x2="10" y2="400" stroke="#303746" stroke-width="0.7"/>
<line x1="254" y1="8" x2="64" y2="400" stroke="#303746" stroke-width="0.7"/>
<line x1="308" y1="8" x2="118" y2="400" stroke="#303746" stroke-width="0.7"/>
<line x1="362" y1="8" x2="172" y2="400" stroke="#303746" stroke-width="0.7"/>
<line x1="416" y1="8" x2="226" y2="400" stroke="#303746" stroke-width="0.7"/>
<line x1="470" y1="8" x2="280" y2="400" stroke="#303746" stroke-width="0.7"/>
<line x1="524" y1="8" x2="334" y2="400" stroke="#303746" stroke-width="0.7"/>
<line x1="578" y1="8" x2="388" y2="400" stroke="#303746" stroke-width="0.7"/>
<line x1="632" y1="8" x2="442" y2="400" stroke="#303746" stroke-width="0.7"/>
<line x1="686" y1="8" x2="496" y2="400" stroke="#303746" stroke-width="0.7"/>
<circle cx="610" cy="48" r="2" fill="#6B1830"/>
<circle cx="628" cy="48" r="3" fill="#6B1830"/>
<circle cx="646" cy="48" r="2" fill="#6B1830"/>
<circle cx="664" cy="48" r="3" fill="#6B1830"/>
<circle cx="682" cy="48" r="2" fill="#6B1830"/>
<circle cx="700" cy="48" r="3" fill="#6B1830"/>
<circle cx="718" cy="48" r="2" fill="#6B1830"/>
<circle cx="610" cy="66" r="2" fill="#6B1830"/>
<circle cx="628" cy="66" r="3" fill="#6B1830"/>
<circle cx="646" cy="66" r="2" fill="#6B1830"/>
<circle cx="664" cy="66" r="3" fill="#6B1830"/>
<circle cx="682" cy="66" r="2" fill="#6B1830"/>
<circle cx="700" cy="66" r="3" fill="#6B1830"/>
<circle cx="718" cy="66" r="2" fill="#6B1830"/>
<circle cx="610" cy="84" r="2" fill="#6B1830"/>
<circle cx="628" cy="84" r="3" fill="#6B1830"/>
<circle cx="646" cy="84" r="2" fill="#6B1830"/>
<circle cx="664" cy="84" r="3" fill="#6B1830"/>
<circle cx="682" cy="84" r="2" fill="#6B1830"/>
<circle cx="700" cy="84" r="3" fill="#6B1830"/>
<circle cx="718" cy="84" r="2" fill="#6B1830"/>
<circle cx="610" cy="102" r="2" fill="#6B1830"/>
<circle cx="628" cy="102" r="3" fill="#6B1830"/>
<circle cx="646" cy="102" r="2" fill="#6B1830"/>
<circle cx="664" cy="102" r="3" fill="#6B1830"/>
<circle cx="682" cy="102" r="2" fill="#6B1830"/>
<circle cx="700" cy="102" r="3" fill="#6B1830"/>
<circle cx="718" cy="102" r="2" fill="#6B1830"/>
<rect x="0" y="0" width="760" height="6" rx="0" fill="#FF1748" stroke="none" stroke-width="0"/>
<text data-role="label" x="34" y="34" font-family="Arial" font-size="10" font-weight="700" fill="#FF1748" text-anchor="start"><tspan x="34" dy="0">EVIDENCE</tspan></text>
<text data-role="page-number" x="714" y="34" font-family="Arial" font-size="10" font-weight="700" fill="#A6ADBC" text-anchor="end"><tspan x="714" dy="0">06</tspan></text>
<text data-role="slide-title" x="34" y="82" font-family="Impact" font-size="26" font-weight="700" fill="#F7F8FC" text-anchor="start"><tspan x="34" dy="0">The signal improves when the handoff becomes visible</tspan></text>
<text data-role="caption" x="34" y="110" font-family="Arial" font-size="9" font-weight="400" fill="#A6ADBC" text-anchor="start"><tspan x="34" dy="0">Illustrative values demonstrate hierarchy only; replace every number and label.</tspan></text>
<text data-role="metric" x="34" y="158" font-family="Impact" font-size="24" font-weight="700" fill="#FF1748" text-anchor="start"><tspan x="34" dy="0">87%</tspan></text>
<text data-role="label" x="132" y="156" font-family="Arial" font-size="10" font-weight="700" fill="#F7F8FC" text-anchor="start"><tspan x="132" dy="0">signal strength</tspan></text>
<text data-role="annotation" x="132" y="174" font-family="Arial" font-size="9" font-weight="400" fill="#A6ADBC" text-anchor="start"><tspan x="132" dy="0">Observed movement · sample period</tspan></text>
<line x1="34" y1="186" x2="246" y2="186" stroke="#303746" stroke-width="1"/>
<text data-role="metric" x="34" y="224" font-family="Impact" font-size="24" font-weight="700" fill="#F7F8FC" text-anchor="start"><tspan x="34" dy="0">04</tspan></text>
<text data-role="label" x="132" y="222" font-family="Arial" font-size="10" font-weight="700" fill="#F7F8FC" text-anchor="start"><tspan x="132" dy="0">critical moments</tspan></text>
<text data-role="annotation" x="132" y="240" font-family="Arial" font-size="9" font-weight="400" fill="#A6ADBC" text-anchor="start"><tspan x="132" dy="0">Observed movement · sample period</tspan></text>
<line x1="34" y1="252" x2="246" y2="252" stroke="#303746" stroke-width="1"/>
<text data-role="metric" x="34" y="290" font-family="Impact" font-size="24" font-weight="700" fill="#F7F8FC" text-anchor="start"><tspan x="34" dy="0">24h</tspan></text>
<text data-role="label" x="132" y="288" font-family="Arial" font-size="10" font-weight="700" fill="#F7F8FC" text-anchor="start"><tspan x="132" dy="0">response window</tspan></text>
<text data-role="annotation" x="132" y="306" font-family="Arial" font-size="9" font-weight="400" fill="#A6ADBC" text-anchor="start"><tspan x="132" dy="0">Observed movement · sample period</tspan></text>
<line x1="34" y1="318" x2="246" y2="318" stroke="#303746" stroke-width="1"/>
<rect x="292" y="148" width="428" height="158" rx="0" fill="#171D28" stroke="#303746" stroke-width="1"/>
<text data-role="label" x="310" y="176" font-family="Arial" font-size="10" font-weight="700" fill="#F7F8FC" text-anchor="start"><tspan x="310" dy="0">TREND INDEX · BASE 100</tspan></text>
<line x1="310" y1="202" x2="702" y2="202" stroke="#303746" stroke-width="1"/>
<line x1="310" y1="228" x2="702" y2="228" stroke="#303746" stroke-width="1"/>
<line x1="310" y1="254" x2="702" y2="254" stroke="#303746" stroke-width="1"/>
<line x1="310" y1="280" x2="702" y2="280" stroke="#303746" stroke-width="1"/>
<polyline points="316,274 374,260 432,266 490,236 548,226 606,200 684,186" fill="none" stroke="#FF1748" stroke-width="4"/>
<circle cx="316" cy="274" r="5" fill="#FF1748"/>
<circle cx="374" cy="260" r="5" fill="#FF1748"/>
<circle cx="432" cy="266" r="5" fill="#FF1748"/>
<circle cx="490" cy="236" r="5" fill="#FF1748"/>
<circle cx="548" cy="226" r="5" fill="#FF1748"/>
<circle cx="606" cy="200" r="5" fill="#FF1748"/>
<circle cx="684" cy="186" r="5" fill="#FF1748"/>
<rect x="292" y="326" width="428" height="42" rx="0" fill="#171D28" stroke="#303746" stroke-width="1"/>
<text data-role="label" x="310" y="352" font-family="Arial" font-size="10" font-weight="700" fill="#7ACBFF" text-anchor="start"><tspan x="310" dy="0">INTERPRETATION</tspan></text>
<text data-role="annotation" x="430" y="352" font-family="Arial" font-size="9" font-weight="400" fill="#F7F8FC" text-anchor="start"><tspan x="430" dy="0">The largest gain appears after ownership and review criteria become explicit.</tspan></text>
<text data-role="source" x="724" y="392" font-family="Arial" font-size="9" font-weight="700" fill="#A6ADBC" text-anchor="end"><tspan x="724" dy="0">ILLUSTRATIVE TEMPLATE</tspan></text>
</g>
</svg>
